Coordinates
version=1
nRows=34
nColumns=38
inDegrees=no

Units are S.I. units (second, meters, Newtons, ...)
If the header above contains a line with 'inDegrees', this indicates whether rotational values are in degrees (yes) or radians (no).

endheader
time	pelvis_tilt	pelvis_list	pelvis_rotation	pelvis_tx	pelvis_ty	pelvis_tz	hip_flexion_r	hip_adduction_r	hip_rotation_r	knee_angle_r	ankle_angle_r	subtalar_angle_r	mtp_angle_r	hip_flexion_l	hip_adduction_l	hip_rotation_l	knee_angle_l	ankle_angle_l	subtalar_angle_l	mtp_angle_l	lumbar_extension	lumbar_bending	lumbar_rotation	arm_flex_r	arm_add_r	arm_rot_r	elbow_flex_r	pro_sup_r	wrist_flex_r	wrist_dev_r	arm_flex_l	arm_add_l	arm_rot_l	elbow_flex_l	pro_sup_l	wrist_flex_l	wrist_dev_l
5.75	2.80373	1.52627	-1.26271	0.624499	1.83811	1.04565	0.21859	-0.0386735	-0.0670443	0.58911	-0.190501	0	0	-0.0577624	0.00224369	-0.197719	0.0694639	-0.460436	0	0	-0.128325	-0.00198899	-0.000739478	0.708418	-0.345009	0.783542	1.12261	1.5708	0	0	0.58064	-0.2855	0.652861	1.14492	1.5708	0	0
5.76	2.89264	1.52541	-1.3471	0.625909	1.83988	1.04539	0.21159	-0.0439713	-0.076274	0.584741	-0.190446	0	0	-0.0571978	0.0031478	-0.199557	0.0785469	-0.454958	0	0	-0.127735	-0.00477898	-0.00214502	0.709343	-0.342823	0.786122	1.11897	1.5708	0	0	0.583853	-0.286089	0.656019	1.13913	1.5708	0	0
5.77	2.98332	1.52434	-1.43353	0.627353	1.84161	1.0451	0.204965	-0.0491672	-0.0864064	0.580079	-0.18959	0	0	-0.0564211	0.00440711	-0.201241	0.0877026	-0.449905	0	0	-0.126729	-0.00819925	-0.00335072	0.711063	-0.340722	0.790424	1.11446	1.5708	0	0	0.58698	-0.286696	0.659224	1.13302	1.5708	0	0
5.78	3.06963	1.52341	-1.51599	0.6289	1.84332	1.04477	0.199017	-0.0534639	-0.0973164	0.574751	-0.188917	0	0	-0.0558211	0.00604655	-0.201025	0.0948825	-0.450407	0	0	-0.12573	-0.0111229	-0.0043302	0.711921	-0.338376	0.792715	1.11128	1.5708	0	0	0.588854	-0.287211	0.66014	1.12815	1.5708	0	0
5.79	3.12542	1.52011	-1.568	0.630454	1.84492	1.04461	0.19106	-0.0557552	-0.112666	0.569167	-0.184874	0	0	-0.0554221	0.00567391	-0.204806	0.107392	-0.437278	0	0	-0.127106	-0.0117771	-0.00409854	0.713229	-0.337421	0.794822	1.10882	1.5708	0	0	0.593979	-0.287554	0.666032	1.12113	1.5708	0	0
5.8	-3.13078	1.51739	-1.59203	0.632116	1.84645	1.0446	0.184829	-0.0562979	-0.126848	0.565668	-0.182776	0	0	-0.055374	0.00457981	-0.206065	0.116959	-0.431958	0	0	-0.128451	-0.0115438	-0.00430493	0.715792	-0.335726	0.798562	1.10562	1.5708	0	0	0.596875	-0.288113	0.667857	1.11609	1.5708	0	0
5.81	-3.12893	1.51466	-1.59145	0.633834	1.8479	1.04477	0.178773	-0.0553698	-0.138061	0.563111	-0.18184	0	0	-0.0553857	0.00230254	-0.207513	0.126231	-0.427385	0	0	-0.130204	-0.0103669	-0.00429555	0.71902	-0.333959	0.803381	1.10186	1.5708	0	0	0.599528	-0.288739	0.669294	1.11143	1.5708	0	0
5.82	3.13868	1.51205	-1.57454	0.635519	1.84926	1.04507	0.173212	-0.053379	-0.143985	0.561602	-0.181859	0	0	-0.0557053	-0.000754658	-0.209432	0.134298	-0.423792	0	0	-0.131995	-0.00758329	-0.0033298	0.722193	-0.332414	0.808241	1.09813	1.5708	0	0	0.602053	-0.288681	0.670804	1.10626	1.5708	0	0
5.83	3.11248	1.50995	-1.54774	0.63726	1.85064	1.04542	0.16807	-0.0500334	-0.144983	0.559251	-0.182266	0	0	-0.0561175	-0.00449831	-0.21135	0.140883	-0.421113	0	0	-0.132502	-0.00357582	-0.00194034	0.725203	-0.330308	0.813913	1.09318	1.5708	0	0	0.604092	-0.288252	0.673069	1.09981	1.5708	0	0
5.84	3.09219	1.50865	-1.52721	0.63907	1.85211	1.04573	0.163909	-0.0463104	-0.14293	0.556464	-0.18248	0	0	-0.0568834	-0.00772778	-0.212068	0.144785	-0.42014	0	0	-0.131447	-0.000277446	-0.000531	0.727151	-0.327447	0.819096	1.08762	1.5708	0	0	0.605035	-0.288019	0.674911	1.09381	1.5708	0	0
5.85	3.08203	1.50758	-1.51714	0.640878	1.85362	1.04604	0.16036	-0.043152	-0.139745	0.554125	-0.182508	0	0	-0.058537	-0.0101005	-0.212429	0.146618	-0.420295	0	0	-0.129953	0.00200075	0.000769358	0.728546	-0.324294	0.823983	1.08217	1.5708	0	0	0.605343	-0.288372	0.676519	1.08884	1.5708	0	0
5.86	3.0824	1.50661	-1.51785	0.642646	1.85515	1.04637	0.157292	-0.0410769	-0.136946	0.552815	-0.182295	0	0	-0.0612471	-0.0114704	-0.212621	0.14631	-0.421422	0	0	-0.128473	0.00347902	0.00181244	0.729614	-0.320943	0.82865	1.07696	1.5708	0	0	0.605081	-0.289406	0.677809	1.08485	1.5708	0	0
5.87	3.0914	1.50579	-1.52708	0.644362	1.85672	1.04668	0.154283	-0.0399496	-0.135647	0.552283	-0.181708	0	0	-0.0650586	-0.0120305	-0.212612	0.143584	-0.423221	0	0	-0.126937	0.00411314	0.00221204	0.730547	-0.317304	0.833337	1.07185	1.5708	0	0	0.604155	-0.291391	0.678802	1.0821	1.5708	0	0
5.88	3.10541	1.50491	-1.54109	0.646011	1.85837	1.04697	0.151181	-0.0396808	-0.135932	0.55214	-0.180999	0	0	-0.0698929	-0.0121027	-0.212374	0.139247	-0.425221	0	0	-0.125237	0.00397121	0.00186534	0.731348	-0.313227	0.838116	1.06659	1.5708	0	0	0.60266	-0.294193	0.679745	1.08021	1.5708	0	0
5.89	3.1203	1.50413	-1.55548	0.647602	1.8601	1.04722	0.148183	-0.039631	-0.138023	0.552494	-0.180217	0	0	-0.0750209	-0.0122037	-0.211436	0.134421	-0.427116	0	0	-0.123235	0.00322794	0.00100066	0.731569	-0.309281	0.842449	1.0621	1.5708	0	0	0.600827	-0.297321	0.680552	1.079	1.5708	0	0
5.9	3.13427	1.503	-1.56844	0.649146	1.86191	1.04744	0.144864	-0.0396759	-0.141729	0.553025	-0.179011	0	0	-0.0816677	-0.0122189	-0.208575	0.127039	-0.429912	0	0	-0.121091	0.00274926	-0.00107392	0.732076	-0.304864	0.847842	1.05704	1.5708	0	0	0.598469	-0.301343	0.68143	1.07827	1.5708	0	0
5.91	-3.13619	1.50208	-1.57981	0.650632	1.86376	1.0476	0.141917	-0.0397737	-0.146133	0.553815	-0.177616	0	0	-0.0884082	-0.0123135	-0.204967	0.119171	-0.432485	0	0	-0.118751	0.00237057	-0.00342416	0.731777	-0.300887	0.852191	1.0532	1.5708	0	0	0.595804	-0.305601	0.682203	1.07836	1.5708	0	0
5.92	-3.12292	1.50157	-1.5916	0.652032	1.86561	1.04768	0.13936	-0.0399426	-0.150479	0.554304	-0.176099	0	0	-0.0946731	-0.0123386	-0.201143	0.111443	-0.434708	0	0	-0.115721	0.00184961	-0.00602608	0.731119	-0.296764	0.856389	1.04943	1.5708	0	0	0.592752	-0.309999	0.682962	1.07876	1.5708	0	0
5.93	-3.10657	1.50141	-1.60618	0.653382	1.86746	1.04768	0.136853	-0.0398676	-0.152645	0.554193	-0.174423	0	0	-0.100354	-0.012154	-0.197329	0.104049	-0.43643	0	0	-0.112237	0.000816985	-0.008718	0.729938	-0.292884	0.860259	1.04637	1.5708	0	0	0.589468	-0.31453	0.683806	1.07976	1.5708	0	0
5.94	-3.09029	1.50135	-1.62069	0.654562	1.86923	1.04773	0.134532	-0.0402851	-0.156381	0.553752	-0.17304	0	0	-0.105555	-0.0117657	-0.194466	0.0971748	-0.437368	0	0	-0.109229	7.68944e-05	-0.0110283	0.728379	-0.290216	0.86364	1.04511	1.5708	0	0	0.586136	-0.318711	0.684622	1.08131	1.5708	0	0
5.95	-3.07383	1.50149	-1.6357	0.65566	1.87095	1.04777	0.132575	-0.0405946	-0.159021	0.553319	-0.171604	0	0	-0.109793	-0.0113906	-0.193613	0.091998	-0.436124	0	0	-0.106137	-0.000682299	-0.0124438	0.727056	-0.289057	0.868424	1.04524	1.5708	0	0	0.583018	-0.322459	0.685868	1.08277	1.5708	0	0
5.96	-3.05488	1.50056	-1.65306	0.65666	1.87264	1.04795	0.129354	-0.04128	-0.162347	0.552331	-0.170944	0	0	-0.116916	-0.00995406	-0.188635	0.082058	-0.44654	0	0	-0.104519	-0.00144808	-0.0165691	0.727075	-0.284856	0.873725	1.04284	1.5708	0	0	0.57646	-0.327652	0.681493	1.08754	1.5708	0	0
5.97	-3.03783	1.50019	-1.66896	0.657604	1.87428	1.04807	0.127445	-0.0419282	-0.164298	0.552574	-0.170105	0	0	-0.122013	-0.00896303	-0.187039	0.0756049	-0.449331	0	0	-0.102001	-0.00257099	-0.0180826	0.725778	-0.283445	0.878451	1.0428	1.5708	0	0	0.572099	-0.331319	0.681039	1.0902	1.5708	0	0
5.98	-3.02159	1.50034	-1.68443	0.658502	1.87591	1.04814	0.126548	-0.042527	-0.164561	0.553553	-0.170142	0	0	-0.125165	-0.00835802	-0.188549	0.072603	-0.447182	0	0	-0.0989005	-0.00419258	-0.016072	0.720377	-0.285085	0.8767	1.04672	1.5708	0	0	0.570697	-0.33284	0.685435	1.09049	1.5708	0	0
5.99	-3.00622	1.49946	-1.69913	0.659342	1.87753	1.04823	0.124052	-0.0427109	-0.164383	0.553686	-0.169	0	0	-0.130461	-0.00729759	-0.187651	0.0668439	-0.449897	0	0	-0.0971778	-0.00479541	-0.0166143	0.718369	-0.285256	0.880334	1.04915	1.5708	0	0	0.566114	-0.335887	0.684415	1.09381	1.5708	0	0
6	-2.99328	1.49841	-1.71148	0.660128	1.87907	1.04833	0.121485	-0.0426105	-0.163138	0.553796	-0.167671	0	0	-0.135571	-0.00643266	-0.18664	0.0616736	-0.452367	0	0	-0.0955902	-0.00544238	-0.0170835	0.716599	-0.285444	0.8842	1.05132	1.5708	0	0	0.561617	-0.338706	0.683364	1.09704	1.5708	0	0
6.01	-2.98359	1.49737	-1.72063	0.660836	1.88053	1.04842	0.119427	-0.0424979	-0.161509	0.554808	-0.166535	0	0	-0.139938	-0.00591195	-0.186211	0.0579087	-0.454079	0	0	-0.094382	-0.00568609	-0.017123	0.714619	-0.286456	0.887249	1.05456	1.5708	0	0	0.557446	-0.340963	0.682354	1.10023	1.5708	0	0
6.02	-2.97696	1.49643	-1.72692	0.661479	1.88194	1.04847	0.117973	-0.042337	-0.160031	0.556819	-0.165441	0	0	-0.143782	-0.00553997	-0.186431	0.0547586	-0.455244	0	0	-0.0932687	-0.00567914	-0.0168628	0.712622	-0.288207	0.890218	1.05876	1.5708	0	0	0.55339	-0.34298	0.681407	1.10364	1.5708	0	0
6.03	-2.97074	1.4958	-1.73264	0.662046	1.88328	1.04845	0.116451	-0.0418464	-0.158175	0.557916	-0.164204	0	0	-0.146751	-0.00530247	-0.186623	0.0526262	-0.455964	0	0	-0.0917533	-0.00578722	-0.0167813	0.71064	-0.289974	0.893132	1.06285	1.5708	0	0	0.549381	-0.344906	0.680561	1.10705	1.5708	0	0
6.04	-2.96697	1.49532	-1.73573	0.662541	1.88457	1.0484	0.114968	-0.0411447	-0.156441	0.55904	-0.162504	0	0	-0.149182	-0.00537639	-0.186543	0.0512188	-0.456524	0	0	-0.0901339	-0.00583618	-0.0172114	0.709412	-0.29157	0.897078	1.06639	1.5708	0	0	0.545131	-0.34695	0.67929	1.11078	1.5708	0	0
6.05	-2.96676	1.49472	-1.73509	0.662947	1.8858	1.04835	0.112918	-0.040143	-0.155231	0.559715	-0.160612	0	0	-0.151246	-0.00580398	-0.186761	0.0507876	-0.456553	0	0	-0.0889482	-0.00534721	-0.0179278	0.708343	-0.293603	0.900951	1.07043	1.5708	0	0	0.540822	-0.348975	0.677793	1.11479	1.5708	0	0
6.06	-2.97049	1.49402	-1.73019	0.663275	1.88699	1.04831	0.11005	-0.0387536	-0.155277	0.55942	-0.158709	0	0	-0.152928	-0.0066651	-0.187416	0.0513107	-0.456112	0	0	-0.0879668	-0.0044691	-0.0188375	0.706977	-0.295918	0.904147	1.07479	1.5708	0	0	0.536817	-0.350688	0.676608	1.11848	1.5708	0	0
6.07	-2.97932	1.49337	-1.71959	0.663524	1.88814	1.04827	0.106808	-0.0373384	-0.156622	0.558095	-0.156879	0	0	-0.154178	-0.00809228	-0.187885	0.0526859	-0.455166	0	0	-0.0872279	-0.00311534	-0.0201596	0.705405	-0.298727	0.906961	1.0798	1.5708	0	0	0.532945	-0.352132	0.675311	1.12236	1.5708	0	0
6.08	-2.99093	1.49302	-1.70582	0.663729	1.88925	1.04822	0.103663	-0.0359691	-0.15897	0.556238	-0.155375	0	0	-0.154765	-0.00997361	-0.187959	0.054856	-0.453629	0	0	-0.0860041	-0.00178381	-0.021809	0.703914	-0.301327	0.910048	1.08414	1.5708	0	0	0.529182	-0.35343	0.674287	1.12598	1.5708	0	0
